<svg xmlns="http://www.w3.org/2000/svg" style="display:none">
  <symbol id="chevron-left" viewBox="0 0 24 24">
    <polyline points="15 18 9 12 15 6"></polyline>
  </symbol>
  <symbol id="more-vertical" viewBox="0 0 24 24">
    <circle cx="12" cy="12" r="1"></circle>
    <circle cx="12" cy="5" r="1"></circle>
    <circle cx="12" cy="19" r="1"></circle>
  </symbol>
  <symbol id="edit-2" viewBox="0 0 24 24">
    <path d="M17 3a2.828 2.828 0 1 1 4 4L7.5 20.5 2 22l1.5-5.5L17 3z"></path>
  </symbol>
  <symbol id="archive" viewBox="0 0 24 24">
    <polyline points="21 8 21 21 3 21 3 8"></polyline>
    <rect x="1" y="3" width="22" height="5"></rect>
    <line x1="10" y1="12" x2="14" y2="12"></line>
  </symbol>
  <symbol id="trash-2" viewBox="0 0 24 24">
    <polyline points="3 6 5 6 21 6"></polyline>
    <path d="M19 6v14a2 2 0 0 1-2 2H7a2 2 0 0 1-2-2V6m3 0V4a2 2 0 0 1 2-2h4a2 2 0 0 1 2 2v2"></path>
    <line x1="10" y1="11" x2="10" y2="17"></line>
    <line x1="14" y1="11" x2="14" y2="17"></line>
  </symbol>
  <symbol id="rotate-ccw" viewBox="0 0 24 24">
    <polyline points="1 4 1 10 7 10"></polyline>
    <path d="M3.51 15a9 9 0 1 0 2.13-9.36L1 10"></path>
  </symbol>
</svg>
